<svg xmlns="http://www.w3.org/2000/svg" xmlns:xlink="http://www.w3.org/1999/xlink" width="28" height="28" viewBox="0 0 28 28">
  <defs>
    <clipPath id="clip-path">
      <rect id="Rectangle_463" data-name="Rectangle 463" width="16" height="16" fill="none"/>
    </clipPath>
  </defs>
  <g id="Search" transform="translate(6 -3)">
    <g id="Rectangle_462" data-name="Rectangle 462" transform="translate(-6 3)" fill="none" stroke="#fff" stroke-width="1">
      <rect width="28" height="28" rx="14" stroke="none"/>
      <rect x="0.5" y="0.5" width="27" height="27" rx="13.5" fill="none"/>
    </g>
    <g id="Search-2" data-name="Search" transform="translate(0 9)" clip-path="url(#clip-path)">
      <path id="Icon_metro-search" data-name="Icon metro-search" d="M14.2,12.14,11.356,9.722a1.268,1.268,0,0,0-.862-.374,4.5,4.5,0,1,0-.5.5,1.268,1.268,0,0,0,.374.862l2.418,2.842A1.008,1.008,0,1,0,14.2,12.14ZM7.071,9.428a3,3,0,1,1,3-3,3,3,0,0,1-3,3Z" transform="translate(-0.571 0.072)" fill="#fff"/>
    </g>
  </g>
</svg>
